<svg
   xmlns="http://www.w3.org/2000/svg"
   width="142"
   height="222"
   viewBox="0 0 142 222"
   version="1.1">
  <g fill="#ddd">
    <path class="hangman__leg--right" d="m23,135 20,55 5,-1.5 -20,-55z" />
    <path class="hangman__leg--left" d="m28,135 -20,55 -5,-1.5 20,-55z" />
    <path class="hangman__arm--right" d="m23,52 15,50 5,-1.5 -15,-50z" />
    <path class="hangman__arm--left" d="m28,52 -15,50 -5,-1.5 15,-50z" />
    <path class="hangman__torso" d="m23,50 5,0 0,90, -5,0z" />
  </g>
  <path fill="#999" stroke="#999" stroke-width="0.5" d="m25,11 0,40 -3,3 1.5,1.5 4,-4 0,-40.5z"/>
  <circle class="hangman__head" fill="#ddd" cx="16" cy="47" r="10" />
  <g fill="#964b25" stroke="#442211">
    <path d="m101,11 0,210 10,0 0,-210z" />
    <path d="m101,161 -30,60 10,0 20,-40z" />
    <path d="m111,161 30,60 -10,0 -20,-40z" />
    <path d="m76,11 25,25 0,10 -35,-35z" />
    <path d="m1,1 110,0 0,10 -110,0z" />
  </g>
</svg>
