<?xml version="1.0" encoding="UTF-8" standalone="no"?>
<!-- Created with Inkscape (http://www.inkscape.org/) -->

<svg
   xmlns:dc="http://purl.org/dc/elements/1.1/"
   xmlns:cc="http://creativecommons.org/ns#"
   xmlns:rdf="http://www.w3.org/1999/02/22-rdf-syntax-ns#"
   xmlns:svg="http://www.w3.org/2000/svg"
   xmlns="http://www.w3.org/2000/svg"
   xmlns:sodipodi="http://sodipodi.sourceforge.net/DTD/sodipodi-0.dtd"
   xmlns:inkscape="http://www.inkscape.org/namespaces/inkscape"
   width="300"
   height="300"
   viewBox="0 0 300 300"
   id="svg5256"
   version="1.1"
   inkscape:version="0.91 r13725"
   sodipodi:docname="hangman.old.svg">
  <defs
     id="defs5258" />
  <sodipodi:namedview
     id="base"
     pagecolor="#ffffff"
     bordercolor="#666666"
     borderopacity="1.0"
     inkscape:pageopacity="0.0"
     inkscape:pageshadow="2"
     inkscape:zoom="0.98994949"
     inkscape:cx="13.03665"
     inkscape:cy="105.07512"
     inkscape:document-units="px"
     inkscape:current-layer="layer1"
     showgrid="false"
     units="px"
     inkscape:window-width="1827"
     inkscape:window-height="1057"
     inkscape:window-x="1765"
     inkscape:window-y="-8"
     inkscape:window-maximized="1" />
  <metadata
     id="metadata5261">
    <rdf:RDF>
      <cc:Work
         rdf:about="">
        <dc:format>image/svg+xml</dc:format>
        <dc:type
           rdf:resource="http://purl.org/dc/dcmitype/StillImage" />
        <dc:title></dc:title>
      </cc:Work>
    </rdf:RDF>
  </metadata>
  <g
     inkscape:label="Layer 1"
     inkscape:groupmode="layer"
     id="layer1"
     transform="translate(0,-752.36216)">
    <path
       style="fill:#0000ba;fill-opacity:1"
       d="m 128.43543,992.02237 35.10714,-66.83181 c -0.48783,-50.76814 -0.0665,-102.40352 0.75121,-153.16156 -62.05142,-0.36867 -61.99328,0.57949 -120.751209,0.40092 l -0.16666,33.5 c -0.0917,18.425 -0.20417,34.26823 -0.25,35.20718 -0.0534,1.0932 2.07452,2.89766 5.91666,5.01736 7.67497,4.23426 12.5779,9.75611 17.55891,19.77546 4.533045,9.11825 6.423855,16.99327 8.100265,33.73657 1.09196,10.90601 1.04617,11.87905 -0.64702,13.75 -2.31018,2.55271 -6.931005,2.59457 -9.440065,0.0855 -1.06036,-1.06035 -2.16566,-3.87285 -2.45623,-6.25 -0.29057,-2.37714 -0.99839,-8.40554 -1.57293,-13.39644 -1.17764,-10.22984 -3.61432,-18.42563 -5.47809,-18.42563 -2.13491,0 -2.79529,50.99726 -0.97418,75.23084 1.3591,18.08559 1.35268,20.20669 -0.0677,22.37442 -1.1341,1.73084 -2.49006,2.39474 -4.89106,2.39474 -5.45906,0 -6.83629,-2.51885 -7.73732,-14.15092 -1.09605,-14.14988 -3.63123,-16.11926 -4.54568,-3.53117 -0.98393,13.54471 -2.06029,15.68209 -7.89731,15.68209 -2.54394,0 -3.82684,-0.64302 -5.07084,-2.5416 -1.78838,-2.72941 -1.77648,-2.94048 2.08296,-36.9584 1.62023,-14.2811 0.97552,-53.80662 -0.86789,-53.20811 -3.09774,1.00575 -6.7006,14.09213 -6.9709,25.31981 -0.12228,5.07951 -0.70194,8.77614 -1.53323,9.77778 -1.81034,2.18132 -6.3518,2.03116 -9.23094,-0.30521 -2.196491,-1.78241 -2.358241,-2.60015 -2.324231,-11.75 0.0274,-7.36512 0.615301,-11.70653 2.341641,-17.2912 2.3575,-7.62651 7.8202,-19.34535 11.34068,-24.32856 2.56244,-3.62712 1.85521,-5.14581 -3.49937,-7.51439 -11.801471,-5.22035 -12.49706,-22.51375 -1.16378,-28.93311 5.45613,-3.09045 11.56551,-2.97205 17.20594,0.33347 2.69104,1.57705 4.79833,2.23953 5.35454,1.68332 0.52432,-0.52433 0.80293,-12.45316 0.65047,-27.85048 l -0.203545,-27.37526 -9.976249,-0.004 c -3.897302,-0.002 -8.952856,-3.549 -9.014457,-7.44582 -0.06068,-3.83871 4.80458,-7.61438 8.643772,-7.61182 58.033126,0.0354 83.937668,0.0155 151.283798,0.004 l -0.53327,167.6231 c 14.62957,31.00083 14.55454,31.2833 29.03327,60.75811 0,1.1767 -1.17647,3.4083 -2.61437,4.959 -2.07169,2.2342 -3.16147,2.6838 -5.25,2.1658 -1.4496,-0.3595 -11.54887,-0.43684 -11.54887,-0.43684 0,0 0,0 -8.08676,-31.26793 0.82143,30.94183 1.10977,23.29665 0.82143,30.94183 l -17.03572,-10e-4 c 0,-8.30215 5.31969,-37.36975 -0.65428,-27.74173 -17.9219,28.88405 -10.21095,17.56702 -17.9219,28.88405 -7.71095,11.31707 -15.81663,-1.29228 -15.81663,-1.29228 z"
       id="path5812"
       inkscape:connector-curvature="0"
       sodipodi:nodetypes="ccccscsssssssssssssssssssssssssssscsaccccscccccszcc" />
    <path
       style="fill:none;fill-rule:evenodd;stroke:#000000;stroke-width:1px;stroke-linecap:butt;stroke-linejoin:miter;stroke-opacity:1"
       d="m 163.75,924.68359 -35,66.96428 17.32143,0 17.67468,-25.05759 0,25.77188 15.36103,0 0,-24.86258 8.37472,24.68887 18.76814,0 -28.09422,-67.47344 0,-167.31739 -152.144352,0 0,15.15228 138.138362,0 z"
       id="path4134"
       inkscape:connector-curvature="0"
       sodipodi:nodetypes="ccccccccccccccc" />
  </g>
</svg>
